# xmcd CD database file
#
# Track frame offsets:
#	150
#	14935
#	29955
#	48487
#	63672
#	79635
#	124732
#	139722
#	149395
#	176600
#	194050
#	224292
#	241062
#	258550
#	280380
#	294517
#	304637
#
# Disc length: 4268 seconds
#
# Revision: 11
# Processed by: cddbd v1.5.1PL0 Copyright (c) Steve Scherf et al.
# Submitted via: CDex 1.51
#
DISCID=1410aa11
DTITLE=THE BLUE HEARTS - SUPER BEST
DYEAR=1995
DGENRE=JPop
TTITLE0=リンダ・リンダ
TTITLE1=人にやさしく
TTITLE2=シャララ
TTITLE3=ロクデナシ
TTITLE4=ラヴレター
TTITLE5=平成のブルース
TTITLE6=キスしてほしい(トゥー・トゥー・トゥー)
TTITLE7=ハンマー
TTITLE8=チェインギャング
TTITLE9=トレイン-トレイン
TTITLE10=ラインを越えて
TTITLE11=僕はここに立っているよ
TTITLE12=英雄にあこがれて
TTITLE13=青空
TTITLE14=終わらない歌
TTITLE15=ブルーハーツより愛を込めて
TTITLE16=1985
EXTD=YEAR: 1995
EXTT0=
EXTT1=
EXTT2=
EXTT3=
EXTT4=
EXTT5=
EXTT6=
EXTT7=
EXTT8=
EXTT9=
EXTT10=
EXTT11=
EXTT12=
EXTT13=
EXTT14=
EXTT15=
EXTT16=
PLAYORDER=
